/vscmnt/brussel_pixiu_data/_data_brussel/112/vsc11236/PredSimResults/SUBJ10mtu3D/worker1.mot
version=1
nRows=5
nColumns=50
inDegrees=yes
endheader
                time	         pelvis_tilt	         pelvis_list	     pelvis_rotation	           pelvis_tx	           pelvis_ty	           pelvis_tz	       hip_flexion_r	     hip_adduction_r	      hip_rotation_r	        knee_angle_r	       ankle_angle_r	         mtp_angle_r	       hip_flexion_l	     hip_adduction_l	      hip_rotation_l	        knee_angle_l	       ankle_angle_l	         mtp_angle_l	    lumbar_extension	      lumbar_bending	     lumbar_rotation	 ercspn_r/activation	 intobl_r/activation	 extobl_r/activation	    abd_r/activation	    add_r/activation	hamstrings_r/activation	bifemsh_r/activation	glut_max_r/activation	iliopsoas_r/activation	rect_fem_r/activation	  vasti_r/activation	gastroc_r/activation	 soleus_r/activation	tib_ant_r/activation	 ercspn_l/activation	 intobl_l/activation	 extobl_l/activation	    abd_l/activation	    add_l/activation	hamstrings_l/activation	bifemsh_l/activation	glut_max_l/activation	iliopsoas_l/activation	rect_fem_l/activation	  vasti_l/activation	gastroc_l/activation	 soleus_l/activation	tib_ant_l/activation	
          1.10115021	         -3.98779200	         -3.18512785	          9.41863454	          1.33239176	          0.82738473	         -0.01176997	         28.01086870	         -0.13077213	         -5.96862657	         -3.46214088	          7.07943702	          0.25397116	        -14.49737258	         -3.74380763	          4.76082388	         -8.87910473	          8.98530624	         25.96724664	         -8.05783831	          1.78832827	         -3.93053678	          0.08725868	          0.16150642	          0.01971392	          0.02116425	          0.11346762	          0.03055006	          0.14675529	          0.01001726	          0.06056139	          0.01057967	          0.01002575	          0.01000740	          0.01000300	          0.26459394	          0.03819478	          0.01000209	          0.01000465	          0.03634645	          0.02116474	          0.02008986	          0.12363494	          0.02747879	          0.29384147	          0.01002574	          0.01000703	          0.20330387	          0.22340217	          0.01663945	
          1.11216171	         -4.04885160	         -3.01746023	          9.21962911	          1.34799405	          0.82581465	         -0.01154659	         27.94306039	          0.08099373	         -4.87601604	         -4.93407473	          6.78325697	          0.25195541	        -14.48741921	         -3.53602934	          4.07373250	        -10.85289744	          8.32660995	         27.56280825	         -7.84421846	          2.14820831	         -4.11048331	          0.07372952	          0.13648529	          0.01665744	          0.01788362	          0.14629578	          0.03629636	          0.12403854	          0.05403287	          0.05117083	          0.01001518	          0.01000630	          0.01861560	          0.01661742	          0.26944685	          0.07887959	          0.01000433	          0.01001920	          0.03071042	          0.05281361	          0.01714276	          0.10446473	          0.02321801	          0.29512060	          0.01001934	          0.01018760	          0.17177854	          0.20719155	          0.01405934	
          1.12317322	         -4.09491593	         -2.86017714	          8.96487036	          1.36383711	          0.82435261	         -0.01127126	         27.71601937	          0.27530098	         -3.82721914	         -6.34048035	          6.43533218	          0.24475147	        -14.32534507	         -3.33105295	          3.32506679	        -13.14942428	          7.57909270	         29.02833142	         -7.61874274	          2.53386787	         -4.26493802	          0.07522264	          0.11532389	          0.01407498	          0.07882932	          0.13794006	          0.04533171	          0.10482866	          0.05639205	          0.04323637	          0.01000497	          0.01000122	          0.01572998	          0.01404125	          0.30975426	          0.10133851	          0.01000150	          0.01000534	          0.02594833	          0.04462890	          0.01449353	          0.08826724	          0.01961788	          0.28439788	          0.01002164	          0.01000727	          0.14514159	          0.17897154	          0.01187938	
          1.13418472	         -4.12756327	         -2.70612788	          8.65541459	          1.37971648	          0.82318991	         -0.01090472	         27.38928580	          0.48489512	         -2.87116111	         -7.56649226	          5.99178640	          0.23226420	        -13.93806607	         -3.12877289	          2.51952804	        -15.85295532	          6.71367441	         30.23818710	         -7.40306840	          2.92849115	         -4.39344380	          0.08272605	          0.09744191	          0.01189319	          0.12066747	          0.15242193	          0.04159292	          0.08857873	          0.07940198	          0.03653223	          0.01000982	          0.01018381	          0.01329304	          0.01186733	          0.32797167	          0.13342496	          0.01000213	          0.01000478	          0.02192468	          0.05016239	          0.01314532	          0.07458160	          0.01657599	          0.26835848	          0.01001332	          0.01130201	          0.12263511	          0.15122016	          0.01003764	
          1.14519622	         -4.14717479	         -2.56029090	          8.29604108	          1.39547046	          0.82249032	         -0.01045454	         27.03948683	          0.71419574	         -2.01965370	         -8.76243747	          5.59647961	          0.22078243	        -13.28032032	         -2.94343629	          1.64836587	        -18.99976630	          5.71922477	         31.00147849	         -7.21003209	          3.33508224	         -4.49620660	          0.07529392	          0.08233263	          0.01005047	          0.13726115	          0.15691470	          0.04275142	          0.07484930	          0.07730705	          0.03086767	          0.01000734	          0.04756102	          0.01123420	          0.01002987	          0.35242360	          0.15087195	          0.01000235	          0.01000463	          0.01852496	          0.06735496	          0.01186880	          0.06301871	          0.01400581	          0.24253068	          0.01000795	          0.01000642	          0.10361861	          0.12777134	          0.01000108	
